<?xml version="1.0" encoding="UTF-8"?>
<svg width="621px" height="412px" viewBox="0 0 621 412" version="1.1" xmlns="http://www.w3.org/2000/svg" xmlns:xlink="http://www.w3.org/1999/xlink">
    <!-- Generator: Sketch 41.2 (35397) - http://www.bohemiancoding.com/sketch -->
    <title>design</title>
    <desc>Created with Sketch.</desc>
    <defs></defs>
    <g id="Symbols" stroke="none" stroke-width="1" fill="none" fill-rule="evenodd">
        <g id="Notes" transform="translate(-39.000000, -475.000000)">
            <g id="design" transform="translate(38.971819, 475.000000)">
                <path d="M10.8983152,0.784170967 L609.304233,0.784170967 C614.922878,0.784170967 620.113642,5.97950093 620.113642,11.6016468 L620.113642,401.076919 C620.113642,407.1403 614.922878,411.901604 609.304233,411.901604 L10.8983152,411.901604 C5.28111034,411.901604 0.0903462851,407.1403 0.0903462851,401.076919 L0.0903462851,11.6002049 C0.0903462851,5.97805899 5.27966966,0.784170967 10.8983152,0.784170967 Z" id="Shape" fill="#A9ABAE"></path>
                <path d="M34.6781518,16.7955348 L595.463636,16.7955348 C600.220756,16.7955348 604.113468,20.6902299 604.113468,25.4500923 L604.113468,378.578242 C604.113468,383.339546 600.220756,386.79589 595.463636,386.79589 L24.738912,386.79589 C19.9760294,386.79589 16.0890792,383.339546 16.0890792,378.578242 L16.0890792,35.4024007 C16.0876386,25.4500923 24.3052678,16.7955348 34.6781518,16.7955348 Z" id="Shape" fill="#FFFFFF"></path>
                <path d="M310.101274,388.963134 C314.874241,388.963134 318.751107,392.837642 318.751107,397.620575 C318.751107,402.397741 314.875682,406.272249 310.101274,406.272249 C305.326866,406.272249 301.457204,402.397741 301.457204,397.620575 C301.457204,392.8362 305.328307,388.963134 310.101274,388.963134 Z" id="Shape" fill="#CCCCCC"></path>
                <ellipse id="Oval" fill="#B3B3B3" cx="310.101274" cy="397.617691" rx="6.05517106" ry="6.06049732"></ellipse>
                <path d="M51.5384104,28.4796199 L578.169733,28.4796199 C582.497531,28.4796199 585.950837,31.9431733 585.950837,36.26901 L585.950837,367.75644 C585.950837,372.088045 582.497531,375.544388 578.169733,375.544388 L42.027052,375.544388 C37.7107797,375.544388 34.251711,372.088045 34.251711,367.75644 L34.251711,45.7887348 C34.2502704,36.2675681 42.027052,28.4796199 51.5384104,28.4796199 Z" id="Shape" fill="#323232"></path>
                <rect id="Rectangle-path" fill="#E6E6E6" x="86.994945" y="69.5923727" width="352.38704" height="288.645785"></rect>
                <rect id="Rectangle-path" fill="#F6AE2D" x="42.8943404" y="69.5923727" width="30.1433129" height="288.601084"></rect>
                <rect id="Rectangle-path" fill="#E6E6E6" x="449.757751" y="71.755291" width="73.0712053" height="286.047399"></rect>
                <rect id="Rectangle-path" fill="#E6E6E6" x="539.259892" y="69.5923727" width="30.1433129" height="288.601084"></rect>
                <rect id="Rectangle-path" fill="#CCCCCC" x="455.380718" y="77.8129045" width="63.1247621" height="80.9277544"></rect>
                <rect id="Rectangle-path" fill="#CCCCCC" x="455.380718" y="168.260384" width="63.1247621" height="46.7363405"></rect>
                <rect id="Rectangle-path" fill="#CCCCCC" x="455.380718" y="227.114835" width="63.0253553" height="29.5267199"></rect>
                <rect id="Rectangle-path" fill="#CCCCCC" x="455.380718" y="266.494369" width="63.1247621" height="81.7900378"></rect>
                <path d="M542.720402,77.8129045 L552.233201,77.8129045 L552.233201,87.3340712 L542.720402,87.3340712 L542.720402,77.8129045 Z M556.553795,340.493575 L566.066594,340.493575 L566.066594,350.445883 L556.553795,350.445883 L556.553795,340.493575 Z M542.720402,340.493575 L552.233201,340.493575 L552.233201,350.445883 L542.720402,350.445883 L542.720402,340.493575 Z M556.553795,327.945764 L566.066594,327.945764 L566.066594,337.898073 L556.553795,337.898073 L556.553795,327.945764 Z M542.720402,327.945764 L552.233201,327.945764 L552.233201,337.898073 L542.720402,337.898073 L542.720402,327.945764 Z M556.553795,315.396512 L566.066594,315.396512 L566.066594,325.34882 L556.553795,325.34882 L556.553795,315.396512 Z M542.720402,315.396512 L552.233201,315.396512 L552.233201,325.34882 L542.720402,325.34882 L542.720402,315.396512 Z M556.553795,302.842934 L566.066594,302.842934 L566.066594,312.798126 L556.553795,312.798126 L556.553795,302.842934 Z M542.720402,302.842934 L552.233201,302.842934 L552.233201,312.798126 L542.720402,312.798126 L542.720402,302.842934 Z M556.553795,290.729149 L566.066594,290.729149 L566.066594,300.250315 L556.553795,300.250315 L556.553795,290.729149 Z M542.720402,290.729149 L552.233201,290.729149 L552.233201,300.250315 L542.720402,300.250315 L542.720402,290.729149 Z M556.553795,278.177012 L566.066594,278.177012 L566.066594,287.698179 L556.553795,287.698179 L556.553795,278.177012 Z M542.720402,278.177012 L552.233201,278.177012 L552.233201,287.698179 L542.720402,287.698179 L542.720402,278.177012 Z M556.553795,265.62776 L566.066594,265.62776 L566.066594,275.148926 L556.553795,275.148926 L556.553795,265.62776 Z M542.720402,265.62776 L552.233201,265.62776 L552.233201,275.148926 L542.720402,275.148926 L542.720402,265.62776 Z M556.553795,253.078507 L566.066594,253.078507 L566.066594,262.599674 L556.553795,262.599674 L556.553795,253.078507 Z M542.720402,253.078507 L552.233201,253.078507 L552.233201,262.599674 L542.720402,262.599674 L542.720402,253.078507 Z M556.553795,240.529255 L566.066594,240.529255 L566.066594,250.050422 L556.553795,250.050422 L556.553795,240.529255 Z M542.720402,240.529255 L552.233201,240.529255 L552.233201,250.050422 L542.720402,250.050422 L542.720402,240.529255 Z M556.553795,227.977118 L566.066594,227.977118 L566.066594,237.498285 L556.553795,237.498285 L556.553795,227.977118 Z M542.720402,227.977118 L552.233201,227.977118 L552.233201,237.498285 L542.720402,237.498285 L542.720402,227.977118 Z M556.553795,215.427866 L566.066594,215.427866 L566.066594,224.949033 L556.553795,224.949033 L556.553795,215.427866 Z M542.720402,215.427866 L552.233201,215.427866 L552.233201,224.949033 L542.720402,224.949033 L542.720402,215.427866 Z M556.553795,202.878613 L566.066594,202.878613 L566.066594,212.39978 L556.553795,212.39978 L556.553795,202.878613 Z M542.720402,202.878613 L552.233201,202.878613 L552.233201,212.39978 L542.720402,212.39978 L542.720402,202.878613 Z M556.553795,190.329361 L566.066594,190.329361 L566.066594,199.850528 L556.553795,199.850528 L556.553795,190.329361 Z M542.720402,190.329361 L552.233201,190.329361 L552.233201,199.850528 L542.720402,199.850528 L542.720402,190.329361 Z M556.553795,177.78155 L566.066594,177.78155 L566.066594,187.302717 L556.553795,187.302717 L556.553795,177.78155 Z M542.720402,177.78155 L552.233201,177.78155 L552.233201,187.302717 L542.720402,187.302717 L542.720402,177.78155 Z M556.553795,165.227972 L566.066594,165.227972 L566.066594,174.749139 L556.553795,174.749139 L556.553795,165.227972 Z M542.720402,165.227972 L552.233201,165.227972 L552.233201,174.749139 L542.720402,174.749139 L542.720402,165.227972 Z M556.553795,152.67872 L566.066594,152.67872 L566.066594,162.199886 L556.553795,162.199886 L556.553795,152.67872 Z M542.720402,152.67872 L552.233201,152.67872 L552.233201,162.199886 L542.720402,162.199886 L542.720402,152.67872 Z M556.553795,140.130909 L566.066594,140.130909 L566.066594,150.081776 L556.553795,150.081776 L556.553795,140.130909 Z M542.720402,140.130909 L552.233201,140.130909 L552.233201,150.081776 L542.720402,150.081776 L542.720402,140.130909 Z M556.553795,127.581657 L566.066594,127.581657 L566.066594,137.533965 L556.553795,137.533965 L556.553795,127.581657 Z M542.720402,127.581657 L552.233201,127.581657 L552.233201,137.533965 L542.720402,137.533965 L542.720402,127.581657 Z M556.553795,115.02952 L566.066594,115.02952 L566.066594,124.984713 L556.553795,124.984713 L556.553795,115.02952 Z M542.720402,115.02952 L552.233201,115.02952 L552.233201,124.984713 L542.720402,124.984713 L542.720402,115.02952 Z M556.553795,102.480268 L566.066594,102.480268 L566.066594,112.434018 L556.553795,112.434018 L556.553795,102.480268 Z M542.720402,102.480268 L552.233201,102.480268 L552.233201,112.434018 L542.720402,112.434018 L542.720402,102.480268 Z M556.553795,89.9310152 L566.066594,89.9310152 L566.066594,99.8833237 L556.553795,99.8833237 L556.553795,89.9310152 Z M542.720402,89.9310152 L552.233201,89.9310152 L552.233201,99.8833237 L542.720402,99.8833237 L542.720402,89.9310152 Z M556.553795,77.8129045 L566.066594,77.8129045 L566.066594,87.3340712 L556.553795,87.3340712 L556.553795,77.8129045 Z" id="Shape" fill="#FF652D"></path>
                <g id="Group" transform="translate(59.423243, 34.521372)">
                    <rect id="Rectangle-path" fill="#999999" x="0.337118731" y="0.449887025" width="500.75674" height="23.8339187"></rect>
                    <ellipse id="Oval" fill="#B3B3B3" cx="16.7637331" cy="12.1325302" rx="6.48593388" ry="6.49163905"></ellipse>
                    <path d="M47.8982327,5.64089115 C51.475437,5.64089115 54.3841666,8.54929541 54.3841666,12.1325302 C54.3841666,15.7186489 51.475437,18.6241693 47.8982327,18.6241693 C44.3152657,18.6241693 41.4122988,15.7186489 41.4122988,12.1325302 C41.4122988,8.54929541 44.3152657,5.64089115 47.8982327,5.64089115 Z" id="Shape" fill="#B3B3B3"></path>
                    <path d="M78.5918847,5.64089115 C82.1748517,5.64089115 85.0778186,8.54929541 85.0778186,12.1325302 C85.0778186,15.7186489 82.1748517,18.6241693 78.5918847,18.6241693 C75.0146804,18.6241693 72.1059508,15.7186489 72.1059508,12.1325302 C72.1059508,8.54929541 75.0146804,5.64089115 78.5918847,5.64089115 Z" id="Shape" fill="#B3B3B3"></path>
                    <path d="M109.720622,5.64089115 C113.309351,5.64089115 116.206555,8.54929541 116.206555,12.1325302 C116.206555,15.7186489 113.309351,18.6241693 109.720622,18.6241693 C106.143417,18.6241693 103.24045,15.7186489 103.24045,12.1325302 C103.24045,8.54929541 106.143417,5.64089115 109.720622,5.64089115 Z" id="Shape" fill="#B3B3B3"></path>
                    <path d="M140.42724,5.64089115 C144.004444,5.64089115 146.913174,8.54929541 146.913174,12.1325302 C146.913174,15.7186489 144.004444,18.6241693 140.42724,18.6241693 C136.83851,18.6241693 133.941306,15.7186489 133.941306,12.1325302 C133.941306,8.54929541 136.837069,5.64089115 140.42724,5.64089115 Z" id="Shape" fill="#B3B3B3"></path>
                    <ellipse id="Oval" fill="#B3B3B3" cx="171.120892" cy="12.1325302" rx="6.48593388" ry="6.49163905"></ellipse>
                    <path d="M202.249629,5.64089115 C205.832596,5.64089115 208.735562,8.54929541 208.735562,12.1325302 C208.735562,15.7186489 205.832596,18.6241693 202.249629,18.6241693 C198.672424,18.6241693 195.763695,15.7186489 195.763695,12.1325302 C195.763695,8.54929541 198.672424,5.64089115 202.249629,5.64089115 Z" id="Shape" fill="#B3B3B3"></path>
                    <ellipse id="Oval" fill="#B3B3B3" cx="232.949043" cy="12.1325302" rx="6.48593388" ry="6.49163905"></ellipse>
                    <ellipse id="Oval" fill="#B3B3B3" cx="263.649899" cy="12.1325302" rx="6.48593388" ry="6.49163905"></ellipse>
                    <ellipse id="Oval" fill="#B3B3B3" cx="294.778635" cy="12.1325302" rx="6.48593388" ry="6.49163905"></ellipse>
                    <ellipse id="Oval" fill="#B3B3B3" cx="325.479491" cy="12.1325302" rx="6.48593388" ry="6.49163905"></ellipse>
                    <path d="M356.178906,5.64089115 C359.754669,5.64089115 362.664839,8.54929541 362.664839,12.1325302 C362.664839,15.7186489 359.754669,18.6241693 356.178906,18.6241693 C352.595939,18.6241693 349.691531,15.7186489 349.691531,12.1325302 C349.692972,8.54929541 352.595939,5.64089115 356.178906,5.64089115 Z" id="Shape" fill="#B3B3B3"></path>
                    <ellipse id="Oval" fill="#B3B3B3" cx="387.307642" cy="12.1325302" rx="6.48593388" ry="6.49163905"></ellipse>
                    <ellipse id="Oval" fill="#B3B3B3" cx="418.007057" cy="12.1325302" rx="6.48593388" ry="6.49163905"></ellipse>
                    <ellipse id="Oval" fill="#B3B3B3" cx="449.135794" cy="12.1325302" rx="6.48593388" ry="6.49163905"></ellipse>
                    <ellipse id="Oval" fill="#B3B3B3" cx="479.836649" cy="12.1325302" rx="6.48593388" ry="6.49163905"></ellipse>
                </g>
                <g id="Group" transform="translate(135.779195, 86.431413)">
                    <polygon id="Shape" fill-opacity="0.7" fill="#FF652D" points="127.629694 42.8776941 164.375636 64.0843879 200.695137 85.2881979 200.695137 127.700144 200.695137 170.107763 164.375636 191.314457 127.629694 212.518267 91.3044304 191.314457 54.5584887 170.107763 54.5584887 127.700144 54.5584887 85.2881979 91.3044304 64.0843879"></polygon>
                    <polygon id="Shape" fill-opacity="0.8" fill="#FF652D" points="127.629694 42.8776941 164.375636 64.0843879 200.695137 85.2881979 200.695137 123.371423 54.5584887 123.371423 54.5584887 85.2881979 91.3044304 64.0843879"></polygon>
                    <rect id="Rectangle-path" fill="#CC3300" x="48.0725548" y="164.915317" width="9.7634771" height="9.82830115"></rect>
                    <polygon id="Shape" fill="#CC3300" points="52.823912 167.512261 197.24039 167.512261 197.24039 172.273566 52.823912 172.273566"></polygon>
                    <rect id="Rectangle-path" fill="#CC3300" x="195.076491" y="164.915317" width="9.76923981" height="9.82830115"></rect>
                    <polygon id="Shape" fill="#CCCCCC" points="54.9863701 166.213068 64.9328134 174.87051 60.1771342 199.103847 45.4750118 199.103847 40.7193326 174.87051 50.6643351 166.213068 50.6643351 187.419762 54.9863701 187.419762"></polygon>
                    <path d="M45.0471303,199.103847 L60.7879818,199.103847 C62.4591687,199.103847 63.8134063,201.811821 63.8134063,205.155693 L63.8134063,205.155693 C63.8134063,208.498123 62.4591687,211.207539 60.7879818,211.207539 L45.0471303,211.207539 C43.3701807,211.207539 42.0159431,208.499565 42.0159431,205.155693 L42.0159431,205.155693 C42.0145024,201.811821 43.3701807,199.103847 45.0471303,199.103847 Z" id="Shape" fill="#B3B3B3"></path>
                    <rect id="Rectangle-path" fill="#4D4D4D" x="50.6643351" y="164.915317" width="4.24567906" height="22.6428716"></rect>
                    <ellipse id="Oval" fill="#4D4D4D" cx="52.823912" cy="187.41832" rx="4.32347569" ry="4.32727872"></ellipse>
                    <path d="M127.19605,4.79591104 L127.19605,4.79591104 L126.327321,4.79591104 L125.460032,4.79591104 L125.032151,4.79591104 C123.736981,5.22993666 122.434608,3.93074368 122.434608,2.63299265 C122.434608,1.33668356 123.736981,0.470074263 125.032151,0.470074263 L125.460032,0.470074263 L126.327321,0.470074263 L127.19605,0.470074263 L127.19605,0.470074263 L128.059016,0.470074263 L128.920542,0.470074263 L129.789271,0.470074263 L130.222915,0.470074263 L131.084441,0.470074263 L131.518085,0.470074263 C132.814695,0.470074263 134.115628,1.7678253 134.115628,3.06413438 C133.681984,3.93074368 132.814695,5.22993666 131.518085,5.22993666 L131.084441,5.22993666 L130.222915,5.22993666 L129.354186,4.79591104 L128.49266,4.79591104 L128.059016,4.79591104 L127.19605,4.79591104 Z M111.197317,1.33668356 C112.492487,1.33668356 113.355453,2.20329286 113.789097,3.49960195 C113.789097,4.79591104 112.920368,5.66252034 111.630961,6.09654596 L111.630961,6.09654596 L110.762232,6.09654596 L109.893503,6.09654596 L109.465622,6.09654596 L108.602655,6.52768769 L107.733926,6.52768769 L107.300282,6.52768769 C106.005112,6.96171332 104.708502,6.09654596 104.708502,4.79591104 C104.274857,3.49960195 105.142146,2.20185092 106.432994,2.20185092 L106.866638,2.20185092 L107.733926,1.7678253 L108.602655,1.7678253 L109.465622,1.7678253 L110.327147,1.7678253 L111.197317,1.33668356 L111.197317,1.33668356 Z M93.0361257,5.22993666 C94.3312956,4.79591104 95.6336688,5.66107839 95.6336688,6.52768769 C96.0615502,7.82399678 95.6336688,9.1246317 94.3312956,9.55577344 L93.8976514,9.55577344 L93.0361257,9.98979906 L92.1731594,9.98979906 L91.7395152,10.4209408 L90.8707862,10.4209408 L90.0092605,10.8549664 L90.0092605,10.8549664 C88.71265,11.2861081 87.4117175,10.4209408 86.9823954,9.12318976 C86.5487512,8.25658046 87.4102768,6.96027137 88.71265,6.52624575 L88.71265,6.52624575 L89.5813791,6.09510402 L90.4443454,6.09510402 L90.8722269,5.66107839 L91.7409559,5.66107839 L92.6096849,5.22993666 L93.0361257,5.22993666 Z M75.7407823,11.288992 C76.6095113,10.8578503 78.3325626,11.288992 78.7676475,12.588185 C79.2012917,13.885936 78.7676475,15.1822451 77.471037,15.6177127 L77.0373928,15.6177127 L76.1758671,16.0488544 L75.742223,16.4828801 L74.8734939,16.9140218 L74.4456125,16.9140218 L73.5826461,17.3480474 L73.5826461,17.3480474 C72.2802729,18.2146567 70.9851031,17.3480474 70.5557809,16.4828801 C70.1221368,15.1822451 70.5557809,13.885936 71.4129846,13.4504685 L71.4129846,13.4504685 L72.2802729,13.0193267 L73.149002,12.588185 L73.5826461,12.1541594 L74.4456125,12.1541594 L74.8734939,11.7230177 L75.7407823,11.288992 Z M59.3084052,20.3775751 C60.6107784,19.5109658 61.9001855,19.9435495 62.7674738,20.8087168 C63.201118,22.1079098 62.7674738,23.4056608 61.9001855,23.8368026 L61.472304,24.2708282 L60.6107784,24.7019699 L60.1771342,25.1359956 L59.74349,25.5671373 L58.874761,26.0011629 L58.4468795,26.4323046 L58.0132353,26.4323046 C57.1517097,27.2989139 55.8493365,26.8663303 54.9878108,26.0011629 C54.1248445,24.7019699 54.5599294,23.4042189 55.421455,22.5390515 L55.8493365,22.5390515 L56.2829806,22.1079098 L57.1517097,21.6738842 L57.5853539,21.2427425 L58.4468795,20.8087168 L58.874761,20.3775751 L59.3084052,20.3775751 Z M44.6120454,31.1950509 C45.4750118,30.3298836 47.2038258,30.3298836 47.6389106,31.6290766 C48.5004363,32.4956859 48.5004363,33.7919949 47.6389106,34.6586042 L47.2052664,35.089746 L46.7716223,35.5237716 L46.3379781,35.9549133 L45.4764524,36.388939 L45.048571,36.8200807 L44.6149268,37.2541063 L44.1812826,37.685248 C43.3139942,38.5518573 42.0173837,38.5518573 41.1558581,37.685248 C40.2871291,36.388939 40.2871291,35.088304 41.1558581,34.2231367 L41.5895023,34.2231367 L42.0173837,33.3565274 L42.4510279,32.9253856 L43.3139942,32.4942439 L43.7476384,32.0602183 L44.1812826,31.6290766 L44.6120454,31.1950509 Z M31.6401777,44.178329 C32.5017033,43.3117197 33.7983138,43.3117197 34.6656022,44.178329 C35.5343312,45.0434964 35.9622127,46.3412474 35.0992464,47.2064148 L35.0992464,47.2064148 L34.231958,48.0730241 L33.7983138,48.5041658 L33.3646696,48.9381914 L32.9367882,49.8033588 L32.503144,50.2345005 L32.0752625,50.6685261 C31.2065335,51.5351354 29.9113637,51.9648352 29.0483973,51.0996679 C28.1796683,50.2330586 27.7460241,48.9367495 28.6147532,47.6361146 L29.0483973,47.2049728 L29.4762788,46.7738311 L29.909923,46.3398055 L30.3378044,45.4731962 L31.2065335,45.0420544 L31.6401777,44.6080288 L31.6401777,44.178329 Z M20.3985646,59.3245255 C21.2600902,58.0253326 22.5624635,57.5927489 23.8518706,58.4593582 C24.7205996,58.8904999 25.1542438,60.6222766 24.2855147,61.4874439 L23.8518706,62.3540532 L23.4239891,62.785195 L23.4239891,63.6503623 L22.9903449,64.0843879 L22.5624635,64.5155297 L22.1288193,65.382139 L22.1288193,65.382139 C21.2600902,66.2473063 19.9649204,66.6813319 19.1019541,66.2473063 C17.7995809,65.382139 17.3659367,64.0843879 18.2332251,63.2192206 L18.2332251,63.2192206 L18.6668692,62.3526113 L19.1005134,61.9185856 L19.5341576,61.0563022 L19.9620391,60.1896929 L19.9620391,59.7556673 L20.3985646,59.3245255 Z M11.7487318,75.3373313 C12.182376,74.0366964 13.4789865,73.6055547 14.775597,74.0366964 C16.0779703,74.9033057 16.5116144,76.2024987 16.0779703,77.069108 L15.6443261,77.9313914 L15.2106819,78.3654171 L15.2106819,79.2320264 L14.7770377,80.0971937 L14.3433935,80.5283355 L14.3433935,81.3949448 L14.3433935,81.3949448 C13.9155121,82.6912538 12.1852574,83.1267214 11.3165283,82.6912538 C10.0256806,82.2601121 9.59203638,80.9623611 10.0256806,79.6631681 L10.0256806,79.6631681 L10.453562,78.7965588 L10.453562,78.3654171 L10.8872062,77.5002497 L11.3150877,76.6336404 L11.3150877,76.2024987 L11.7487318,75.3373313 Z M5.26279797,92.6464462 C5.69644215,91.7798369 6.99305265,90.9146696 8.28966316,91.3501371 C9.5905957,91.7812789 10.0256806,92.6464462 10.0256806,93.9441972 L9.59203638,93.9441972 L9.59203638,94.8108065 L9.59203638,95.6774158 L9.1583922,96.1114415 L9.1583922,96.9737249 L8.72474802,97.8403342 L8.72474802,98.2743599 C8.29110384,99.5706689 6.99449333,100.437278 6.13296769,100.006137 C4.83059447,99.5721109 3.96906882,98.7069435 4.402713,97.4091925 L4.402713,96.5425832 L4.83059447,96.1114415 L4.83059447,95.2448322 L4.83059447,94.3782229 L5.26423865,93.5130555 L5.26423865,92.6464462 L5.26279797,92.6464462 Z M1.8022886,110.820728 C1.8022886,109.524419 3.10466182,108.65781 4.39983165,109.088952 C5.69644215,109.088952 6.56373051,110.389587 6.13008633,111.685896 L6.13008633,112.117038 L6.13008633,112.982205 L6.13008633,113.416231 L5.69644215,114.28284 L5.69644215,115.149449 L5.69644215,116.011733 L5.69644215,116.011733 C5.69644215,117.312367 4.39983165,118.177535 3.10466182,118.177535 C2.23593278,117.743509 0.940762955,116.878342 1.37440713,115.580591 L1.37440713,115.580591 L1.37440713,114.715423 L1.37440713,113.848814 L1.37440713,112.982205 L1.37440713,112.117038 L1.8022886,111.685896 L1.8022886,110.820728 Z M0.51144081,129.43192 C0.51144081,128.131285 1.8022886,127.266118 2.66957696,127.266118 C3.96474679,127.266118 5.26135729,128.132727 5.26135729,129.43192 L5.26135729,129.863062 L5.26135729,130.729671 L5.26135729,131.596281 L5.26135729,132.461448 L5.26135729,133.328057 L5.26135729,133.759199 C5.26135729,135.058392 4.39839097,136.356143 3.10322114,136.356143 C1.80084792,136.356143 0.939322277,135.489534 0.939322277,134.193225 L0.939322277,133.328057 L0.939322277,132.461448 L0.51144081,131.596281 L0.51144081,131.165139 L0.51144081,130.298529 L0.51144081,129.43192 Z M2.23593278,148.037344 C2.23593278,146.741035 2.66957696,145.443284 3.96618747,145.443284 C5.26279797,145.009258 6.56517119,145.874426 6.56517119,147.172177 L6.99305265,148.037344 L6.99305265,148.47137 L6.99305265,149.337979 L7.42669683,150.204588 L7.42669683,151.066872 L7.42669683,151.500897 C7.8545783,152.797207 6.99305265,154.097841 5.69644215,154.097841 C4.39983165,154.528983 3.10466182,153.663816 3.10466182,152.366065 L3.10466182,151.932039 L2.67101764,151.06543 L2.67101764,150.203146 L2.67101764,149.336537 L2.23737346,148.469928 L2.23737346,148.037344 L2.23593278,148.037344 Z M6.56517119,165.781927 C6.13152701,164.915317 6.56517119,163.619008 7.85601898,163.184983 C9.15695152,162.753841 10.453562,163.184983 10.8872062,164.485618 L10.8872062,164.916759 L11.3150877,165.783369 L11.3150877,166.21451 L11.7487318,167.079678 L11.7487318,167.946287 L12.182376,168.380313 L12.182376,168.811454 C12.6160202,170.107763 12.182376,171.408398 10.8872062,171.83954 C9.5905957,172.273566 8.28966316,171.408398 7.85601898,170.543231 L7.85601898,170.109205 L7.42813751,169.246922 L7.42813751,168.380313 L6.99449333,167.946287 L6.99449333,167.079678 L6.56661187,166.21451 L6.56661187,165.781927 L6.56517119,165.781927 Z M13.0511051,183.091041 C12.6174609,182.224432 13.0511051,180.496981 14.3419529,180.061514 C15.2106819,179.630372 16.9394959,180.061514 17.368818,181.357823 L17.368818,181.357823 L17.8024622,182.224432 L18.2361064,183.091041 L18.6697506,183.525067 L18.6697506,184.390234 L19.1033948,184.821376 L19.5370389,185.255402 C19.9649204,186.117685 19.5370389,187.41832 18.2346657,188.283488 C17.3673774,188.714629 16.0765296,188.283488 15.2092412,187.41832 L15.2092412,186.984295 L14.775597,186.117685 L14.3419529,185.686544 L14.3419529,184.819934 L13.9140714,184.388793 L13.4804272,183.523625 L13.0511051,183.091041 Z M22.5624635,199.103847 C21.6937344,198.237238 22.1288193,196.940929 22.9903449,196.07432 C24.2869554,195.209152 25.587888,195.640294 26.0215321,196.505461 L26.4494136,196.939487 L26.8830578,197.370629 L27.3109393,198.235796 L27.7445834,198.669822 L28.1782276,199.536431 L28.6118718,199.967573 L28.6118718,200.398714 C29.4748381,201.265324 29.4748381,202.564517 28.1782276,203.431126 C27.3094986,204.297735 26.0200915,203.862268 25.1528031,202.9971 L24.7191589,202.565959 L24.2855147,202.131933 L23.8518706,201.266766 L23.4239891,200.835624 L22.9903449,199.969015 L22.5624635,199.537873 L22.5624635,199.103847 L22.5624635,199.103847 Z M33.7983138,213.818902 C32.9353475,212.952293 32.9353475,211.221958 34.231958,210.355349 C35.0992464,209.488739 36.3958569,209.488739 37.2573825,210.78649 L37.2573825,210.78649 L37.6910267,211.220516 L38.5597557,211.651658 L38.9876372,212.518267 L39.4212814,212.952293 L39.8491628,213.383434 L40.282807,213.81746 C41.1515361,214.679744 41.1515361,215.980378 40.282807,217.276688 C39.4198407,218.143297 38.1246709,218.143297 37.2559418,216.845546 L36.8222976,216.41152 L35.960772,215.980378 L35.5328905,215.546353 L35.0992464,215.115211 L34.6656022,214.248602 L34.231958,213.81746 L33.7983138,213.81746 L33.7983138,213.818902 Z M47.2052664,226.366713 C46.3365374,225.501545 46.3365374,224.20091 46.7716223,223.338627 C47.6403513,222.037992 49.3634026,222.037992 50.2321316,222.904601 L50.6657758,223.338627 L51.09942,223.769769 L51.9609456,224.20091 L52.3888271,224.634936 L52.8224713,225.066078 L53.6897596,225.500103 L53.6897596,225.500103 C54.5584887,226.365271 54.9863701,227.663022 54.1234038,228.962215 C53.2546748,229.82594 51.959505,229.82594 51.0979793,229.393356 L50.6643351,229.393356 L50.2306909,228.526747 L49.7970468,228.095605 L48.9340804,227.66158 L48.5004363,227.230438 L48.0725548,226.796412 L47.2052664,226.366713 Z M62.3352703,237.18563 C61.472304,236.319021 61.0386598,235.022712 61.472304,233.724961 C62.3352703,232.859794 63.6362029,232.425768 64.4991692,233.290935 L65.3606949,233.290935 L65.794339,233.724961 L66.2279832,234.156103 L67.0967123,234.590128 L67.5245937,235.02127 L68.38756,235.02127 L68.38756,235.452412 C69.6899333,235.886437 70.1235774,237.184188 69.2562891,238.484823 C68.8226449,239.351433 67.5260344,239.782574 66.2294239,239.351433 L66.2294239,239.351433 L65.3606949,238.917407 L64.9328134,238.486265 L64.0698471,238.05224 L63.6362029,237.621098 L62.7674738,237.187072 L62.3352703,237.187072 L62.3352703,237.18563 Z M78.7676475,245.407604 C77.8989184,244.973579 77.0373928,243.675827 77.471037,242.378076 C77.8989184,241.078883 79.2012917,240.6463 80.4979022,241.078883 L80.9315463,241.512909 L81.793072,241.512909 L82.2267162,241.944051 L83.0954452,241.944051 L83.9584115,242.378076 L84.386293,242.809218 L84.8199372,242.809218 C85.6886662,243.243244 86.5501919,244.540995 86.1223104,245.838746 C85.6886662,246.705355 84.386293,247.570523 83.0954452,247.137939 L83.0954452,247.137939 L82.2267162,246.703913 L81.3579871,246.272771 L80.9301057,246.272771 L80.0671393,245.838746 L79.199851,245.407604 L78.7676475,245.407604 Z M96.4951944,251.034076 C95.2000246,251.034076 94.3312956,249.733441 94.7649397,248.437132 C94.7649397,247.139381 96.0601096,246.274213 97.3567201,246.705355 L98.2240084,246.705355 L98.6576526,247.139381 L99.5206189,247.139381 L100.382145,247.570523 L101.250874,247.570523 L101.684518,247.570523 C102.979688,248.004548 103.842654,249.302299 103.40901,250.60005 C103.40901,251.46666 102.118162,252.331827 100.817229,252.331827 L99.9557038,251.900685 L99.5220596,251.900685 L98.6590933,251.900685 L97.7918049,251.46666 L96.9230759,251.46666 L96.4951944,251.034076 Z M114.657826,254.494745 C113.355453,254.063604 112.493927,253.198436 112.493927,251.900685 C112.493927,250.601492 113.790538,249.734883 115.085708,249.734883 L115.519352,249.734883 L116.380878,249.734883 L116.814522,250.168908 L117.683251,250.168908 L118.546217,250.168908 L119.407743,250.168908 L119.407743,250.168908 C120.710116,250.168908 121.571642,251.46666 121.571642,252.765852 C121.571642,253.632462 120.276472,254.928771 118.979861,254.494745 L118.979861,254.494745 L118.116895,254.494745 L117.248166,254.494745 L116.379437,254.494745 L115.945793,254.494745 L115.082826,254.494745 L114.657826,254.494745 L114.657826,254.494745 Z M132.813255,254.928771 C131.516644,254.928771 130.655119,254.062162 130.655119,252.765852 C130.655119,251.46666 131.516644,250.168908 132.813255,250.168908 L133.246899,250.168908 L134.114187,250.168908 L134.977154,250.168908 L135.838679,250.168908 L136.707408,250.168908 L137.141052,250.168908 C138.4319,249.734883 139.299189,251.035518 139.732833,251.900685 C139.732833,253.198436 138.864104,254.494745 137.568934,254.494745 L136.705968,254.494745 L135.837238,254.494745 L135.403594,254.494745 L134.542069,254.928771 L133.679102,254.928771 L132.813255,254.928771 Z M150.970124,252.765852 C150.107157,252.765852 148.811988,251.899243 148.378343,251.034076 C148.378343,249.733441 149.247072,248.437132 150.108598,248.004548 L150.971564,248.004548 L151.840293,248.004548 L152.273938,247.570523 L153.142667,247.570523 L154.005633,247.570523 L154.867159,247.139381 C155.735888,247.139381 157.031058,247.570523 157.458939,248.871157 C157.458939,250.167467 157.031058,251.465218 155.734447,251.899243 L154.865718,251.899243 L154.004192,251.899243 L153.570548,252.330385 L152.707582,252.330385 L151.840293,252.330385 L150.970124,252.765852 Z M169.131315,248.00599 C167.836145,248.437132 166.539535,247.571964 166.10445,246.274213 C165.676568,245.407604 166.10445,244.111295 167.40106,243.677269 L167.834704,243.677269 L168.268349,243.246128 L169.129874,242.812102 L169.563518,242.812102 L170.425044,242.38096 L171.293773,241.946935 L171.727417,241.946935 C172.590384,241.515793 173.885553,241.946935 174.754282,243.246128 C175.182164,244.543879 174.320638,245.840188 173.451909,246.275655 L172.590384,246.275655 L172.162502,246.706797 L171.293773,247.140823 L170.425044,247.140823 L169.9914,247.571964 L169.128434,247.571964 L169.128434,248.00599 L169.131315,248.00599 Z M185.997336,240.647742 C184.696404,241.078883 183.399793,240.647742 182.970471,239.351433 C182.101742,238.484823 182.536827,237.18563 183.833437,236.319021 L183.833437,236.319021 L184.696404,235.887879 L185.130048,235.453854 L185.998777,235.022712 L186.426658,235.022712 L187.295387,234.59157 L187.730472,234.157545 C188.591998,233.726403 189.888608,234.157545 190.757337,235.024154 C191.185219,236.320463 190.757337,237.621098 189.888608,238.05224 L189.453524,238.486265 L188.590557,238.917407 L188.156913,239.351433 L187.293947,239.782574 L186.860303,239.782574 L185.997336,240.213716 L185.997336,240.647742 L185.997336,240.647742 Z M201.562425,230.692549 C200.267255,231.559159 198.963441,231.126575 198.101916,230.261408 C197.668271,228.963657 197.668271,227.664464 198.964882,226.797854 L198.964882,226.797854 L199.399967,226.366713 L200.268696,225.932687 L200.696577,225.501545 L201.130221,225.06752 L201.99895,224.636378 L202.426832,224.202352 C203.295561,223.340069 204.592172,223.771211 205.453697,224.636378 C206.322426,225.502987 206.322426,227.233322 205.025816,227.665906 L204.592172,228.099931 L204.157087,228.531073 L203.29412,229.397682 L202.860476,229.828824 L201.99751,230.26285 L201.562425,230.692549 L201.562425,230.692549 Z M215.397259,218.578764 C214.534293,219.441048 213.239123,219.441048 212.370394,218.578764 C211.507428,217.712155 211.507428,216.412962 212.370394,215.546353 L212.804038,215.115211 L213.239123,214.248602 L213.667004,213.81746 L214.535733,213.383434 L214.963615,212.952293 L215.3987,212.518267 L215.3987,212.087125 C216.267429,211.221958 217.562599,211.221958 218.857768,212.087125 C219.720735,212.953735 219.720735,214.681186 218.857768,215.547795 L218.857768,215.547795 L217.989039,215.98182 L217.561158,216.412962 L217.126073,217.279571 L216.692429,217.713597 L215.829463,218.144739 L215.397259,218.578764 Z M227.935483,204.728877 C227.072516,206.026628 225.777346,206.026628 224.474973,205.160019 C223.612007,204.297735 223.179803,202.9971 224.047092,202.130491 L224.474973,201.699349 L224.910058,201.265324 L225.343702,200.398714 L225.778787,199.967573 L226.206669,199.536431 L226.640313,198.669822 L226.640313,198.669822 C227.509042,197.370629 228.804212,197.370629 230.100822,197.803212 C230.962348,198.669822 230.962348,199.966131 230.534466,201.263882 L230.100822,201.263882 L229.665737,202.129049 L229.232093,202.563075 L228.802771,203.429684 L228.369127,203.860826 L227.935483,204.294851 L227.935483,204.728877 L227.935483,204.728877 Z M237.880485,189.151539 C237.017519,190.44929 235.716586,190.880432 234.85362,190.018148 C233.55845,189.584122 233.123365,188.286371 233.984891,186.985737 L233.984891,186.985737 L234.419976,186.119127 L234.85362,185.687986 L234.85362,184.821376 L235.288705,184.390234 L235.716586,183.525067 L235.716586,183.091041 C236.585315,182.224432 237.880485,181.79329 239.175655,182.224432 C240.044384,182.658458 240.470825,183.956209 240.044384,185.256844 L239.61074,185.687986 L239.61074,186.119127 L239.175655,186.985737 L238.742011,187.852346 L238.312689,188.286371 L237.880485,189.151539 L237.880485,189.151539 Z M245.66303,172.704707 C245.229385,173.571317 243.934216,174.436484 242.636164,174.005342 C241.340995,173.571317 240.90735,172.273566 241.340995,170.972931 L241.340995,170.541789 L241.776079,169.67518 L241.776079,169.244038 L242.203961,168.377429 L242.203961,167.943403 L242.637605,167.076794 L242.637605,166.645652 C243.07269,165.345017 244.36786,164.913875 245.66447,165.345017 C246.95964,165.779043 247.394725,167.076794 246.95964,167.941961 L246.95964,168.375987 L246.531759,169.242596 L246.531759,170.104879 L246.098114,170.538905 L246.098114,171.405514 L245.66303,172.270682 L245.66303,172.704707 Z M250.852353,154.528983 C250.418709,155.825292 249.123539,156.691902 248.25481,156.26076 C246.958199,156.26076 246.096674,154.964451 246.096674,153.663816 L246.530318,153.232674 L246.530318,152.367507 L246.530318,151.500897 L246.958199,151.066872 L246.958199,150.204588 L246.958199,149.337979 L246.958199,149.337979 C247.393284,148.037344 248.688454,147.172177 249.985065,147.606202 C250.853794,147.606202 251.715319,148.902512 251.715319,150.203146 L251.715319,150.203146 L251.287438,151.06543 L251.287438,151.932039 L251.287438,152.366065 L250.852353,153.231232 L250.852353,154.097841 L250.852353,154.528983 Z M253.445574,136.354701 C253.010489,137.65101 252.148963,138.517619 250.852353,138.517619 C249.555742,138.517619 248.688454,137.219868 248.688454,135.923559 L248.688454,135.489534 L248.688454,134.622924 L249.123539,134.191783 L249.123539,133.326615 L249.123539,132.460006 L249.123539,131.594839 L249.123539,131.594839 C249.123539,130.297088 249.985065,129.43192 251.287438,129.43192 C252.582608,129.43192 253.445574,130.297088 253.445574,131.594839 L253.445574,131.594839 L253.445574,132.460006 L253.445574,133.326615 L253.445574,134.191783 L253.445574,135.058392 L253.445574,135.925001 L253.445574,136.354701 Z M253.010489,117.744951 C253.445574,119.045586 252.582608,120.341895 251.287438,120.341895 C249.985065,120.341895 248.688454,119.476728 248.688454,118.178977 L248.688454,117.313809 L248.688454,116.879784 L248.688454,116.013175 L248.25481,115.150891 L248.25481,114.284282 L248.25481,113.850256 C248.25481,112.553947 249.123539,111.253312 250.418709,111.253312 C251.713879,111.253312 252.582608,112.119921 252.582608,113.419114 L253.010489,113.850256 L253.010489,114.716865 L253.010489,115.582033 L253.010489,116.448642 L253.010489,117.315251 L253.010489,117.744951 L253.010489,117.744951 Z M250.418709,99.569227 C250.852353,100.869862 249.983624,102.166171 248.688454,102.166171 C247.393284,102.597313 246.530318,101.732145 246.096674,100.434394 L246.096674,100.003253 L245.661589,99.1366433 L245.661589,98.7026177 L245.227945,97.8360084 L245.227945,96.9693991 L245.227945,96.1071156 L245.227945,96.1071156 C244.800063,94.8064807 245.227945,93.9413133 246.528877,93.5101716 C247.824047,93.076146 249.122098,93.9413133 249.555742,94.8064807 L249.555742,95.2405063 L249.555742,96.1071156 L249.983624,96.5382574 L249.983624,97.4048667 L249.983624,98.271476 L250.418709,99.1366433 L250.418709,99.569227 L250.418709,99.569227 Z M245.229385,81.8289704 C245.66303,83.1252795 244.801504,84.4230305 243.934216,84.8570561 C242.637605,85.2881979 241.340995,84.4230305 240.90735,83.5578631 L240.90735,83.5578631 L240.472266,82.6912538 L240.472266,81.8289704 L240.044384,81.3949448 L239.61074,80.5283355 L239.61074,80.0971937 L239.175655,79.2320264 C238.742011,78.3654171 239.175655,76.6350824 240.470825,76.2024987 C241.339554,75.7684731 243.069809,76.2024987 243.49769,77.5002497 L243.49769,78.3654171 L243.932775,78.7965588 L244.366419,79.6631681 L244.366419,80.0971937 L244.801504,80.963803 L245.229385,81.8289704 L245.229385,81.8289704 Z M237.446841,64.9509972 C237.880485,66.2473063 237.446841,67.5450573 236.583875,67.9805249 C235.288705,68.8456923 233.984891,68.4116666 233.123365,67.1139156 L233.123365,67.1139156 L233.123365,66.6827739 L232.689721,65.8176065 L232.26184,65.3835809 L231.826755,64.5169716 L231.393111,64.0858299 L230.958026,63.6518043 C230.530144,62.3554952 230.530144,61.0577441 231.826755,60.1925768 C232.689721,59.7585512 234.419976,60.1925768 234.85362,61.0591861 L235.288705,61.9214695 L235.716586,62.3554952 L236.150231,63.2221045 L236.585315,63.6532462 L237.01896,64.5198555 L237.01896,64.9538811 L237.446841,64.9538811 L237.446841,64.9509972 Z M227.072516,49.8048007 C227.935483,50.67141 227.50616,51.9677191 226.637431,52.8343284 C225.775906,53.7009377 224.045651,53.2654702 223.610566,52.4003028 L223.176922,51.9691611 L222.749041,51.5380193 L222.313956,50.67141 L221.880312,50.2373844 L221.017345,49.8062427 L220.583701,48.9410753 L220.583701,48.9410753 C219.714972,48.074466 220.148616,46.7781569 221.017345,45.9115476 C221.880312,45.0449383 223.175481,45.0449383 224.04421,45.9115476 L224.04421,46.3426894 L224.907177,46.776715 L225.340821,47.2078567 L225.775906,48.074466 L226.203787,48.5056078 L226.637431,48.9396334 L227.072516,49.8048007 Z M214.534293,35.9549133 C215.397259,36.8215226 215.829463,38.1178317 214.962174,38.984441 C214.100649,39.8510503 212.370394,39.8510503 211.508868,38.984441 L211.075224,38.984441 L210.640139,38.5532993 L210.206495,37.68669 L209.778614,37.2555483 L208.909884,36.8215226 L208.4748,36.3903809 L208.4748,35.9563553 C207.17963,35.0911879 207.17963,33.7934369 208.046918,32.9282695 C208.909884,32.0616602 210.205054,32.0616602 211.505987,32.9282695 L211.505987,32.9282695 L212.368953,33.3594113 L212.802597,34.2260206 L213.237682,34.6600462 L213.665564,35.0911879 L214.534293,35.5252135 L214.534293,35.9549133 Z M200.695137,23.8368026 C201.563866,24.7034119 201.996069,26.0026049 201.128781,27.3003559 C200.267255,28.1669652 198.964882,28.596665 198.101916,27.7343815 L197.668271,27.7343815 L197.24039,27.3003559 L196.371661,26.8692142 L195.936576,26.4351885 L195.508695,26.0040468 L194.639966,25.5700212 L194.206321,25.1388794 C193.343355,24.7048538 192.911152,22.9759611 193.776999,22.1093518 C194.206321,21.2441844 195.507254,20.8101588 196.803864,21.2441844 L197.238949,21.6753261 L197.666831,22.1093518 L198.53556,22.5404935 L198.963441,22.9745191 L199.83217,23.4056608 L200.267255,23.8368026 L200.695137,23.8368026 L200.695137,23.8368026 Z M184.696404,14.3170778 C185.997336,15.1836871 186.425218,16.4828801 185.997336,17.3494894 C185.128607,18.6472404 183.833437,19.0783821 182.538268,18.6472404 L182.538268,18.2160987 L182.103183,18.2160987 L181.241657,17.782073 L180.806572,17.3509313 L179.937843,16.9169057 L179.509962,16.9169057 L178.644114,16.4828801 C177.781148,16.0488544 176.913859,14.7511034 177.781148,13.4504685 C178.216232,12.1527174 179.511402,11.7215757 180.808013,12.5867431 L181.243098,12.5867431 L182.104623,13.0178848 L182.539708,13.4490265 L183.402675,13.4490265 L183.836319,13.8830522 L184.696404,14.3170778 L184.696404,14.3170778 Z M167.836145,7.39285505 C169.131315,7.39285505 169.5664,8.69060608 169.131315,9.98979906 C168.703433,11.2875501 167.40106,11.7215757 166.539535,11.2875501 L166.10589,11.2875501 L165.678009,11.2875501 L164.80928,10.8564084 L163.940551,10.8564084 L163.512669,10.4223827 L162.649703,10.4223827 L162.216059,9.991241 C160.915126,9.55721538 160.480041,8.69204803 160.480041,7.39429699 C160.913686,6.09798791 162.216059,5.23137861 163.511229,5.66252034 L163.93911,6.09654596 L164.807839,6.09654596 L165.678009,6.52768769 L166.10589,6.52768769 L166.968857,6.96171332 L167.837586,6.96171332 L167.837586,7.39285505 L167.836145,7.39285505 Z M150.107157,2.63299265 C151.403768,2.63299265 152.271056,3.93074368 151.837412,5.22993666 C151.837412,6.52768769 150.540802,7.39285505 149.245632,6.96171332 L148.811988,6.96171332 L147.943259,6.96171332 L147.081733,6.52768769 L146.653851,6.52768769 L145.785122,6.52768769 L144.916393,6.09654596 L144.916393,6.09654596 C143.625546,6.09654596 142.758257,4.79591104 142.758257,3.49960195 C143.191901,2.63299265 144.054868,1.7678253 145.350038,1.7678253 L145.783682,1.7678253 L146.217326,1.7678253 L147.080292,2.20185092 L147.941818,2.20185092 L148.810547,2.20185092 L149.679276,2.63299265 L150.107157,2.63299265 Z" id="Shape" fill="#CCCCCC"></path>
                </g>
            </g>
        </g>
    </g>
</svg>