<?xml version="1.0" encoding="UTF-8"?>
<svg width="432px" height="373px" viewBox="0 0 432 373" version="1.1" xmlns="http://www.w3.org/2000/svg" xmlns:xlink="http://www.w3.org/1999/xlink">
    <!-- Generator: Sketch 41.2 (35397) - http://www.bohemiancoding.com/sketch -->
    <title>speech-bubble</title>
    <desc>Created with Sketch.</desc>
    <defs></defs>
    <g id="Symbols" stroke="none" stroke-width="1" fill="none" fill-rule="evenodd">
        <g id="Notes" transform="translate(-721.000000, -128.000000)">
            <g id="speech-bubble" transform="translate(721.000000, 128.000000)">
                <path d="M66.528728,164.93916 L176.727908,164.93916 C213.248462,164.93916 242.853091,194.497612 242.853091,230.96581 L242.853091,258.47983 C242.853091,294.939697 213.246793,324.498148 176.727908,324.498148 L111.906137,324.498148 L67.7353432,368.056043 C59.2840302,376.41372 52.3614302,373.502862 52.3614302,361.631162 L52.3614302,322.963575 C22.6433159,316.473712 0.378511957,290.082713 0.378511957,258.481496 L0.378511957,230.967476 C0.378511957,194.497612 29.9931544,164.93916 66.528728,164.93916 Z" id="Shape" fill="#FF652D"></path>
                <path d="M331.970718,0.386559234 L190.005682,0.386559234 C135.018743,0.386559234 90.4357301,44.905853 90.4357301,99.7856008 L90.4357301,141.200757 C90.4357301,196.090502 135.018743,240.593134 190.005682,240.593134 L263.644256,240.593134 L330.116569,306.176574 C342.875315,318.761409 353.302606,314.395956 353.302606,296.500929 L353.302606,238.290441 C398.039158,228.534819 431.522312,188.784199 431.522312,141.202423 L431.522312,99.787267 C431.522312,44.9041868 386.9393,0.386559234 331.970718,0.386559234 Z" id="Shape" fill="#FFFFFF"></path>
                <g id="Group" transform="translate(145.194359, 96.639808)" fill="#EFEFF0">
                    <path d="M0.0247050139,25.0163807 C0.0247050139,38.4743072 10.9543355,49.3929393 24.4257018,49.3929393 C37.9054125,49.3929393 48.8333741,38.4743072 48.8333741,25.0163807 C48.8333741,11.5584543 37.9054125,0.656484216 24.4257018,0.656484216 C10.9543355,0.656484216 0.0247050139,11.5601205 0.0247050139,25.0163807 Z" id="Shape"></path>
                    <path d="M87.0044703,25.0163807 C87.0044703,38.4743072 97.9257564,49.3929393 111.405467,49.3929393 C124.876833,49.3929393 135.813139,38.4743072 135.813139,25.0163807 C135.813139,11.5584543 124.876833,0.656484216 111.405467,0.656484216 C97.9257564,0.656484216 87.0044703,11.5601205 87.0044703,25.0163807 Z" id="Shape"></path>
                    <path d="M173.960871,25.0163807 C173.960871,38.4743072 184.897177,49.3929393 198.376888,49.3929393 C211.85493,49.3929393 222.76954,38.4743072 222.76954,25.0163807 C222.76954,11.5584543 211.856599,0.656484216 198.376888,0.656484216 C184.897177,0.656484216 173.960871,11.5601205 173.960871,25.0163807 Z" id="Shape"></path>
                </g>
            </g>
        </g>
    </g>
</svg>